<svg class="svg-icon" xmlns="http://www.w3.org/2000/svg" width="11" height="20" viewBox="0 0 11 20" fill="none">
  <g clip-path="url(#clip0_28_8)">
    <mask id="mask0_28_8" style="mask-type:luminance" maskUnits="userSpaceOnUse" x="0" y="-1" width="11" height="22">
      <path d="M5.5 18.3332C5.5 18.3332 8.9375 13.3332 8.9375 7.91651C8.9375 4.46484 7.39842 1.6665 5.5 1.6665C3.60158 1.6665 2.0625 4.46484 2.0625 7.91651C2.0625 13.3332 5.5 18.3332 5.5 18.3332Z" fill="white" stroke="white" stroke-width="4" stroke-linejoin="round"/>
      <path d="M5.5 10.4165C5.68057 10.4165 5.85937 10.3518 6.02619 10.2262C6.19301 10.1006 6.34459 9.91642 6.47227 9.68427C6.59995 9.45212 6.70123 9.17653 6.77033 8.87321C6.83943 8.5699 6.875 8.24481 6.875 7.9165C6.875 7.5882 6.83943 7.26311 6.77033 6.9598C6.70123 6.65648 6.59995 6.38088 6.47227 6.14874C6.34459 5.91659 6.19301 5.73244 6.02619 5.60681C5.85937 5.48117 5.68057 5.4165 5.5 5.4165C5.13533 5.4165 4.78559 5.6799 4.52773 6.14874C4.26987 6.61758 4.125 7.25346 4.125 7.9165C4.125 8.57955 4.26987 9.21543 4.52773 9.68427C4.78559 10.1531 5.13533 10.4165 5.5 10.4165Z" fill="black" stroke="black" stroke-width="4" stroke-linejoin="round"/>
    </mask>
    <g mask="url(#mask0_28_8)">
      <path d="M0 0H11V20H0V0Z" fill="#FCC800"/>
    </g>
  </g>
  <defs>
    <clipPath id="clip0_28_8">
      <rect width="11" height="20" fill="white"/>
    </clipPath>
  </defs>
</svg>